<?xml version="1.0" encoding="utf-8"?>
<!-- Generator: Adobe Illustrator 19.0.0, SVG Export Plug-In . SVG Version: 6.00 Build 0)  -->
<!DOCTYPE svg PUBLIC "-//W3C//DTD SVG 1.1//EN" "http://www.w3.org/Graphics/SVG/1.1/DTD/svg11.dtd">
<svg version="1.1" id="Layer_1" xmlns="http://www.w3.org/2000/svg" xmlns:xlink="http://www.w3.org/1999/xlink" x="0px" y="0px"
	 viewBox="0 0 181.4 51.5" enable-background="new 0 0 181.4 51.5" xml:space="preserve">
<g id="XMLID_4_">
	<g>
		<path fill="#CAE7DA" d="M86.8,51.5c12.9,0,23.1-11.8,23.3-26.9l0-1.2l1,0.6c2.7,1.7,7,3.9,13.3,3.9c9.7,0,13.2-5.9,13.2-11.4
			c0-3.5-2.3-8.9-8.4-8.9c-4.1,0-8.6,2.3-8.6,7.3c0,2.9,2.3,5.1,5.4,5.1c2.3,0,3.6-1.2,3.6-2.3c0-1.2-0.8-2-2-2
			c-0.7,0-1.2,0.3-1.6,0.6c-0.4,0.3-0.9,0.6-1.4,0.6c-1.2,0-2-1.2-2-2.9c0-2.5,1.1-5.6,6.6-5.6c3.4,0,7.1,2.9,7.1,8.2
			c0,5.7-3.2,9.1-8.5,9.1c-6.9,0-11.5-2.7-15.2-5c-2.7-1.6-5-3-7.5-3c-5.6,0-9.8,4.2-9.8,7.9c0,3.3,2.4,4.1,3.7,4.1
			c1.3,0,2.4-1,2.4-2.2c0-1.1-0.5-1.5-1.2-2.1c-0.8-0.6-1.7-1.4-1.7-3.1c0-1.4,1-2.8,3.4-2.8c2.3,0,4.3,1.3,6.7,2.9l0.4,0.3v0.4
			c0,16.1-10.7,23.4-21.4,23.4c-9.1,0-16.2-6-16.2-13.7c0-6.7,3.3-9.4,6.7-11.7l0.4-0.3l0.4,0.3c2.8,2.3,5.1,3.3,7.6,3.3
			c3.2,0,5.4-1.9,5.4-4.7c0-1.8-1.3-3.8-4.2-3.8c-2.1,0-3.9,0.7-5.8,1.5l-0.5,0.2l-0.3-0.4c-1.3-1.6-2-3.8-2-5.9
			c0-0.9,0.1-1.8,0.2-2.5l0.1-0.7l0.7,0.2c2,0.6,3.8,0.9,5.5,0.9c5.3,0,8.1-2.7,8.1-5.3c0-2.4-2.6-4-5.1-4c-4.6,0-9,2.2-11.6,5.8
			l-0.3,0.4l-0.5-0.2c-3.3-1.3-6.6-2.6-11.1-2.6c-12.1,0-19.4,7.5-19.4,14.8c0,5.6,4.1,9.5,10,9.5c3.3,0,5.9-2,5.9-4.6
			c0-2.2-1.2-3.4-3.2-3.4c-1.3,0-1.8,0.9-2.4,2c-0.6,1.1-1.4,2.5-3.3,2.5c-3.3,0-5.9-2.6-5.9-6.1c0-9,9.4-13.9,18.2-13.9
			c3.7,0,7.2,1.3,10.4,2.4L76.3,7L76,7.7c-0.7,1.5-1.1,3-1.1,4.4c0,2.8,0.8,4.8,2.6,7.2l0.5,0.7l-0.8,0.4
			c-6.8,3.4-10.4,8.7-10.4,15.3C66.9,43.5,73.1,51.5,86.8,51.5z M82.8,18.5c1.3-0.8,2.8-1.6,4.7-1.6c1.9,0,3.2,1.2,3.2,2.9
			s-1.3,2.9-3.2,2.9c-1.6,0-3.4-1.2-4.9-3.2l-0.4-0.6L82.8,18.5z M80,6.7C81.4,2.9,84.5,1,89.1,1c2.4,0,3.5,1.6,3.5,3
			c0,1-0.5,4.3-6.8,4.3c-1.8,0-3.5-0.2-5.3-0.8l-0.7-0.2L80,6.7z"/>
	</g>
	<g>
		<g id="XMLID_923_">
			<g id="XMLID_978_">
				<g id="XMLID_1035_">
					<path id="XMLID_1036_" fill="#B08638" d="M2.5,35.3c0-0.2-0.2-0.4-0.4-0.4H0.4C0.2,35,0,34.8,0,34.6V34c0-0.2,0.2-0.4,0.4-0.4
						h6c0.2,0,0.4,0.2,0.4,0.4v0.6c0,0.2-0.2,0.4-0.4,0.4H4.5c-0.2,0-0.4,0.2-0.4,0.4v7.2c0,0.2-0.2,0.4-0.4,0.4H2.9
						c-0.2,0-0.4-0.2-0.4-0.4V35.3z"/>
				</g>
				<g id="XMLID_1031_">
					<path id="XMLID_1032_" fill="#B08638" d="M11,34c0.1-0.2,0.3-0.3,0.5-0.3H13c0.2,0,0.4,0.2,0.5,0.3l2.5,8.5
						c0.1,0.2-0.1,0.3-0.3,0.3h-0.9c-0.2,0-0.4-0.2-0.5-0.3l-0.5-1.7c-0.1-0.2-0.3-0.3-0.5-0.3h-2.5c-0.2,0-0.4,0.2-0.5,0.3L10,42.5
						c-0.1,0.2-0.3,0.3-0.5,0.3H8.8c-0.2,0-0.3-0.2-0.3-0.3L11,34z M11,38.9c-0.1,0.2,0.1,0.3,0.3,0.3h1.8c0.2,0,0.3-0.2,0.3-0.3
						l-1.1-4c-0.1-0.2-0.1-0.2-0.2,0L11,38.9z"/>
				</g>
				<g id="XMLID_1028_">
					<path id="XMLID_1029_" fill="#B08638" d="M19.1,34c0-0.2,0.2-0.4,0.4-0.4h0.9c0.2,0,0.4,0.2,0.4,0.4v7.2c0,0.2,0.2,0.4,0.4,0.4
						h2.9c0.2,0,0.4,0.2,0.4,0.4v0.6c0,0.2-0.2,0.4-0.4,0.4h-4.5c-0.2,0-0.4-0.2-0.4-0.4V34z"/>
				</g>
				<g id="XMLID_1025_">
					<path id="XMLID_1026_" fill="#B08638" d="M27.1,42.1c0-0.2,0.2-0.4,0.4-0.4h0.9c0.2,0,0.4-0.2,0.4-0.4v-6.2
						c0-0.2-0.2-0.4-0.4-0.4h-0.9c-0.2,0-0.4-0.2-0.4-0.4V34c0-0.2,0.2-0.4,0.4-0.4h4.1c0.2,0,0.4,0.2,0.4,0.4v0.4
						c0,0.2-0.2,0.4-0.4,0.4h-0.9c-0.2,0-0.4,0.2-0.4,0.4v6.2c0,0.2,0.2,0.4,0.4,0.4h0.9c0.2,0,0.4,0.2,0.4,0.4v0.4
						c0,0.2-0.2,0.4-0.4,0.4h-4.1c-0.2,0-0.4-0.2-0.4-0.4V42.1z"/>
				</g>
				<g id="XMLID_1022_">
					<path id="XMLID_1023_" fill="#B08638" d="M43.7,39c-0.1-0.2-0.3-0.2-0.4,0l-1.2,1.6c-0.1,0.2-0.2,0.5-0.2,0.7v1.3
						c0,0.2-0.2,0.4-0.4,0.4h-0.9c-0.2,0-0.4-0.2-0.4-0.4V34c0-0.2,0.2-0.4,0.4-0.4h0.9c0.2,0,0.4,0.2,0.4,0.4v4.5
						c0,0.2,0.1,0.2,0.2,0.1l3.2-4.6c0.1-0.2,0.4-0.3,0.6-0.3h1.1c0.2,0,0.3,0.1,0.2,0.3l-2.3,3.2c-0.1,0.2-0.1,0.4,0,0.6l2.5,4.8
						c0.1,0.2,0,0.3-0.2,0.3h-1c-0.2,0-0.4-0.1-0.5-0.3L43.7,39z"/>
				</g>
				<g id="XMLID_1018_">
					<path id="XMLID_1019_" fill="#B08638" d="M52.4,34c0.1-0.2,0.3-0.3,0.5-0.3h1.5c0.2,0,0.4,0.2,0.5,0.3l2.5,8.5
						c0.1,0.2-0.1,0.3-0.3,0.3h-0.9c-0.2,0-0.4-0.2-0.5-0.3l-0.5-1.7c-0.1-0.2-0.3-0.3-0.5-0.3h-2.5c-0.2,0-0.4,0.2-0.5,0.3
						l-0.4,1.7c-0.1,0.2-0.3,0.3-0.5,0.3h-0.8c-0.2,0-0.3-0.2-0.3-0.3L52.4,34z M52.4,38.9c-0.1,0.2,0.1,0.3,0.3,0.3h1.8
						c0.2,0,0.3-0.2,0.3-0.3l-1.1-4c-0.1-0.2-0.1-0.2-0.2,0L52.4,38.9z"/>
				</g>
				<g id="XMLID_1015_">
					<path id="XMLID_1016_" fill="#B08638" d="M61.7,35.3c0-0.2-0.2-0.4-0.4-0.4h-1.8c-0.2,0-0.4-0.2-0.4-0.4V34
						c0-0.2,0.2-0.4,0.4-0.4h6c0.2,0,0.4,0.2,0.4,0.4v0.6c0,0.2-0.2,0.4-0.4,0.4h-1.8c-0.2,0-0.4,0.2-0.4,0.4v7.2
						c0,0.2-0.2,0.4-0.4,0.4H62c-0.2,0-0.4-0.2-0.4-0.4V35.3z"/>
				</g>
				<g id="XMLID_1012_">
					<path id="XMLID_1013_" fill="#B08638" d="M69,34c0-0.2,0.2-0.4,0.4-0.4h0.9c0.2,0,0.4,0.2,0.4,0.4v3.2c0,0.2,0.2,0.4,0.4,0.4
						h2.8c0.2,0,0.4-0.2,0.4-0.4V34c0-0.2,0.2-0.4,0.4-0.4h0.9c0.2,0,0.4,0.2,0.4,0.4v8.5c0,0.2-0.2,0.4-0.4,0.4h-0.9
						c-0.2,0-0.4-0.2-0.4-0.4v-3.1c0-0.2-0.2-0.4-0.4-0.4h-2.8c-0.2,0-0.4,0.2-0.4,0.4v3.1c0,0.2-0.2,0.4-0.4,0.4h-0.9
						c-0.2,0-0.4-0.2-0.4-0.4V34z"/>
				</g>
				<g id="XMLID_1009_">
					<path id="XMLID_1010_" fill="#B08638" d="M79.4,34c0-0.2,0.2-0.4,0.4-0.4h0.9c0.2,0,0.4,0.2,0.4,0.4v7.2c0,0.2,0.2,0.4,0.4,0.4
						h2.9c0.2,0,0.4,0.2,0.4,0.4v0.6c0,0.2-0.2,0.4-0.4,0.4h-4.5c-0.2,0-0.4-0.2-0.4-0.4V34z"/>
				</g>
				<g id="XMLID_1006_">
					<path id="XMLID_1007_" fill="#B08638" d="M87.9,34c0-0.2,0.2-0.4,0.4-0.4h4.9c0.2,0,0.4,0.2,0.4,0.4v0.5c0,0.2-0.2,0.4-0.4,0.4
						h-3.4c-0.2,0-0.4,0.2-0.4,0.4v2c0,0.2,0.2,0.4,0.4,0.4h3.1c0.2,0,0.4,0.2,0.4,0.4v0.5c0,0.2-0.2,0.4-0.4,0.4h-3.1
						c-0.2,0-0.4,0.2-0.4,0.4v2.1c0,0.2,0.2,0.4,0.4,0.4h3.4c0.2,0,0.4,0.2,0.4,0.4v0.5c0,0.2-0.2,0.4-0.4,0.4h-5
						c-0.2,0-0.4-0.2-0.4-0.4V34z"/>
				</g>
				<g id="XMLID_1003_">
					<path id="XMLID_1004_" fill="#B08638" d="M97.1,34c0-0.2,0.2-0.4,0.4-0.4h4.9c0.2,0,0.4,0.2,0.4,0.4v0.5c0,0.2-0.2,0.4-0.4,0.4
						H99c-0.2,0-0.4,0.2-0.4,0.4v2c0,0.2,0.2,0.4,0.4,0.4h3.1c0.2,0,0.4,0.2,0.4,0.4v0.5c0,0.2-0.2,0.4-0.4,0.4H99
						c-0.2,0-0.4,0.2-0.4,0.4v2.1c0,0.2,0.2,0.4,0.4,0.4h3.4c0.2,0,0.4,0.2,0.4,0.4v0.5c0,0.2-0.2,0.4-0.4,0.4h-5
						c-0.2,0-0.4-0.2-0.4-0.4V34z"/>
				</g>
				<g id="XMLID_1000_">
					<path id="XMLID_1001_" fill="#B08638" d="M106.3,34c0-0.2,0.2-0.4,0.4-0.4h1c0.2,0,0.4,0.1,0.5,0.3l3.3,6.2
						c0.1,0.2,0.2,0.2,0.2,0V34c0-0.2,0.2-0.4,0.4-0.4h0.7c0.2,0,0.4,0.2,0.4,0.4v8.5c0,0.2-0.2,0.4-0.4,0.4h-1
						c-0.2,0-0.4-0.1-0.5-0.3l-3.3-6.2c-0.1-0.2-0.2-0.2-0.2,0v6.2c0,0.2-0.2,0.4-0.4,0.4h-0.7c-0.2,0-0.4-0.2-0.4-0.4V34z"/>
				</g>
				<g id="XMLID_997_">
					<path id="XMLID_998_" fill="#B08638" d="M121.9,34c0-0.2,0.2-0.4,0.4-0.4h1.7c0.2,0,0.4,0.2,0.5,0.3l2.2,7.2
						c0.1,0.2,0.2,0.2,0.2,0L129,34c0.1-0.2,0.3-0.3,0.5-0.3h1.7c0.2,0,0.4,0.2,0.4,0.4v8.5c0,0.2-0.2,0.4-0.4,0.4h-0.8
						c-0.2,0-0.4-0.2-0.4-0.4v-7.3c0-0.2,0-0.2-0.1,0l-2.3,7.4c-0.1,0.2-0.3,0.3-0.5,0.3h-1.1c-0.2,0-0.4-0.2-0.5-0.3l-2.2-7.4
						c-0.1-0.2-0.1-0.2-0.1,0v7.3c0,0.2-0.2,0.4-0.4,0.4h-0.7c-0.2,0-0.4-0.2-0.4-0.4V34z"/>
				</g>
				<g id="XMLID_994_">
					<path id="XMLID_995_" fill="#B08638" d="M135.5,41.8c-0.1-0.1-0.3-0.4-0.3-0.6v-5.8c0-0.2,0.1-0.5,0.3-0.6l0.8-0.8
						c0.1-0.1,0.4-0.3,0.6-0.3h3.3c0.2,0,0.5,0.1,0.6,0.3l0.8,0.8c0.1,0.1,0.3,0.4,0.3,0.6v0.9c0,0.2-0.2,0.4-0.4,0.4h-0.8
						c-0.2,0-0.4-0.2-0.4-0.4v-0.4c0-0.2-0.1-0.5-0.3-0.6l-0.1-0.1c-0.1-0.1-0.4-0.3-0.6-0.3h-1.6c-0.2,0-0.5,0.1-0.6,0.3l-0.1,0.1
						c-0.1,0.1-0.3,0.4-0.3,0.6v4.8c0,0.2,0.1,0.5,0.3,0.6l0.1,0.1c0.1,0.1,0.4,0.3,0.6,0.3h1.6c0.2,0,0.5-0.1,0.6-0.3l0.1-0.1
						c0.1-0.1,0.3-0.4,0.3-0.6v-0.5c0-0.2,0.2-0.4,0.4-0.4h0.8c0.2,0,0.4,0.2,0.4,0.4v1c0,0.2-0.1,0.5-0.3,0.6l-0.8,0.8
						c-0.1,0.1-0.4,0.3-0.6,0.3h-3.3c-0.2,0-0.5-0.1-0.6-0.3L135.5,41.8z"/>
				</g>
				<g id="XMLID_991_">
					<path id="XMLID_992_" fill="#B08638" d="M145.6,41.8c-0.1-0.1-0.3-0.4-0.3-0.6v-5.8c0-0.2,0.1-0.5,0.3-0.6l0.8-0.8
						c0.1-0.1,0.4-0.3,0.6-0.3h3.3c0.2,0,0.5,0.1,0.6,0.3l0.8,0.8c0.1,0.1,0.3,0.4,0.3,0.6v0.9c0,0.2-0.2,0.4-0.4,0.4h-0.8
						c-0.2,0-0.4-0.2-0.4-0.4v-0.4c0-0.2-0.1-0.5-0.3-0.6l-0.1-0.1c-0.1-0.1-0.4-0.3-0.6-0.3h-1.6c-0.2,0-0.5,0.1-0.6,0.3l-0.1,0.1
						c-0.1,0.1-0.3,0.4-0.3,0.6v4.8c0,0.2,0.1,0.5,0.3,0.6l0.1,0.1c0.1,0.1,0.4,0.3,0.6,0.3h1.6c0.2,0,0.5-0.1,0.6-0.3l0.1-0.1
						c0.1-0.1,0.3-0.4,0.3-0.6v-0.5c0-0.2,0.2-0.4,0.4-0.4h0.8c0.2,0,0.4,0.2,0.4,0.4v1c0,0.2-0.1,0.5-0.3,0.6l-0.8,0.8
						c-0.1,0.1-0.4,0.3-0.6,0.3H147c-0.2,0-0.5-0.1-0.6-0.3L145.6,41.8z"/>
				</g>
				<g id="XMLID_987_">
					<path id="XMLID_988_" fill="#B08638" d="M157.2,34c0.1-0.2,0.3-0.3,0.5-0.3h1.5c0.2,0,0.4,0.2,0.5,0.3l2.5,8.5
						c0.1,0.2-0.1,0.3-0.3,0.3H161c-0.2,0-0.4-0.2-0.5-0.3l-0.5-1.7c-0.1-0.2-0.3-0.3-0.5-0.3h-2.5c-0.2,0-0.4,0.2-0.5,0.3l-0.4,1.7
						c-0.1,0.2-0.3,0.3-0.5,0.3H155c-0.2,0-0.3-0.2-0.3-0.3L157.2,34z M157.2,38.9c-0.1,0.2,0.1,0.3,0.3,0.3h1.8
						c0.2,0,0.3-0.2,0.3-0.3l-1.1-4c-0.1-0.2-0.1-0.2-0.2,0L157.2,38.9z"/>
				</g>
				<g id="XMLID_982_">
					<path id="XMLID_983_" fill="#B08638" d="M165.3,34c0-0.2,0.2-0.4,0.4-0.4h4.8c0.2,0,0.5,0.1,0.6,0.3l0.7,0.7
						c0.1,0.1,0.3,0.4,0.3,0.6v1.6c0,0.2-0.1,0.5-0.3,0.6l-0.5,0.5c-0.1,0.1-0.1,0.4,0,0.5l0.5,0.5c0.1,0.1,0.3,0.4,0.3,0.6v1.9
						c0,0.2-0.1,0.5-0.3,0.6l-0.7,0.7c-0.1,0.1-0.4,0.3-0.6,0.3h-4.8c-0.2,0-0.4-0.2-0.4-0.4V34z M169.5,37.5c0.2,0,0.5-0.1,0.6-0.3
						l0.1-0.1c0.1-0.1,0.3-0.4,0.3-0.6v-0.9c0-0.2-0.1-0.5-0.3-0.6c-0.1-0.1-0.4-0.3-0.6-0.3h-2.3c-0.2,0-0.4,0.2-0.4,0.4v2
						c0,0.2,0.2,0.4,0.4,0.4H169.5z M169.6,41.7c0.2,0,0.5-0.1,0.6-0.2c0.1-0.1,0.3-0.4,0.3-0.6v-1.1c0-0.2-0.1-0.5-0.3-0.6
						l-0.1-0.1c-0.1-0.1-0.4-0.3-0.6-0.3h-2.2c-0.2,0-0.4,0.2-0.4,0.4v2.3c0,0.2,0.2,0.4,0.4,0.4H169.6z"/>
				</g>
				<g id="XMLID_979_">
					<path id="XMLID_980_" fill="#B08638" d="M175.7,34c0-0.2,0.2-0.4,0.4-0.4h4.9c0.2,0,0.4,0.2,0.4,0.4v0.5c0,0.2-0.2,0.4-0.4,0.4
						h-3.4c-0.2,0-0.4,0.2-0.4,0.4v2c0,0.2,0.2,0.4,0.4,0.4h3.1c0.2,0,0.4,0.2,0.4,0.4v0.5c0,0.2-0.2,0.4-0.4,0.4h-3.1
						c-0.2,0-0.4,0.2-0.4,0.4v2.1c0,0.2,0.2,0.4,0.4,0.4h3.4c0.2,0,0.4,0.2,0.4,0.4v0.5c0,0.2-0.2,0.4-0.4,0.4h-5
						c-0.2,0-0.4-0.2-0.4-0.4V34z"/>
				</g>
			</g>
			<g id="XMLID_924_">
				<g id="XMLID_975_">
					<path id="XMLID_976_" fill="#B08638" d="M9.3,12.2c0-0.2,0.2-0.4,0.4-0.4h1c0.2,0,0.4,0.1,0.5,0.3l3.3,6.2
						c0.1,0.2,0.2,0.2,0.2,0v-6.1c0-0.2,0.2-0.4,0.4-0.4h0.7c0.2,0,0.4,0.2,0.4,0.4v8.5c0,0.2-0.2,0.4-0.4,0.4h-1
						c-0.2,0-0.4-0.1-0.5-0.3l-3.3-6.2c-0.1-0.2-0.2-0.2-0.2,0v6.2c0,0.2-0.2,0.4-0.4,0.4H9.7c-0.2,0-0.4-0.2-0.4-0.4V12.2z"/>
				</g>
				<g id="XMLID_971_">
					<path id="XMLID_972_" fill="#B08638" d="M21.6,12.2c0.1-0.2,0.3-0.3,0.5-0.3h1.5c0.2,0,0.4,0.2,0.5,0.3l2.5,8.5
						c0.1,0.2-0.1,0.3-0.3,0.3h-0.9c-0.2,0-0.4-0.2-0.5-0.3l-0.5-1.7c-0.1-0.2-0.3-0.3-0.5-0.3h-2.5c-0.2,0-0.4,0.2-0.5,0.3
						l-0.4,1.7c-0.1,0.2-0.3,0.3-0.5,0.3h-0.8c-0.2,0-0.3-0.2-0.3-0.3L21.6,12.2z M21.6,17.1c-0.1,0.2,0.1,0.3,0.3,0.3h1.8
						c0.2,0,0.3-0.2,0.3-0.3l-1.1-4c-0.1-0.2-0.1-0.2-0.2,0L21.6,17.1z"/>
				</g>
				<g id="XMLID_968_">
					<path id="XMLID_969_" fill="#B08638" d="M30.9,13.5c0-0.2-0.2-0.4-0.4-0.4h-1.8c-0.2,0-0.4-0.2-0.4-0.4v-0.6
						c0-0.2,0.2-0.4,0.4-0.4h6c0.2,0,0.4,0.2,0.4,0.4v0.6c0,0.2-0.2,0.4-0.4,0.4h-1.8c-0.2,0-0.4,0.2-0.4,0.4v7.2
						c0,0.2-0.2,0.4-0.4,0.4h-0.9c-0.2,0-0.4-0.2-0.4-0.4V13.5z"/>
				</g>
				<g id="XMLID_965_">
					<path id="XMLID_966_" fill="#B08638" d="M38.2,12.2c0-0.2,0.2-0.4,0.4-0.4h0.9c0.2,0,0.4,0.2,0.4,0.4v3.2
						c0,0.2,0.2,0.4,0.4,0.4h2.8c0.2,0,0.4-0.2,0.4-0.4v-3.2c0-0.2,0.2-0.4,0.4-0.4h0.9c0.2,0,0.4,0.2,0.4,0.4v8.5
						c0,0.2-0.2,0.4-0.4,0.4h-0.9c-0.2,0-0.4-0.2-0.4-0.4v-3.1c0-0.2-0.2-0.4-0.4-0.4h-2.8c-0.2,0-0.4,0.2-0.4,0.4v3.1
						c0,0.2-0.2,0.4-0.4,0.4h-0.9c-0.2,0-0.4-0.2-0.4-0.4V12.2z"/>
				</g>
				<g id="XMLID_961_">
					<path id="XMLID_962_" fill="#B08638" d="M50.4,12.2c0.1-0.2,0.3-0.3,0.5-0.3h1.5c0.2,0,0.4,0.2,0.5,0.3l2.5,8.5
						c0.1,0.2-0.1,0.3-0.3,0.3h-0.9c-0.2,0-0.4-0.2-0.5-0.3l-0.5-1.7c-0.1-0.2-0.3-0.3-0.5-0.3h-2.5c-0.2,0-0.4,0.2-0.5,0.3
						l-0.4,1.7c-0.1,0.2-0.3,0.3-0.5,0.3h-0.8c-0.2,0-0.3-0.2-0.3-0.3L50.4,12.2z M50.4,17.1c-0.1,0.2,0.1,0.3,0.3,0.3h1.8
						c0.2,0,0.3-0.2,0.3-0.3l-1.1-4c-0.1-0.2-0.1-0.2-0.2,0L50.4,17.1z"/>
				</g>
				<g id="XMLID_958_">
					<path id="XMLID_959_" fill="#B08638" d="M58.5,12.2c0-0.2,0.2-0.4,0.4-0.4h1c0.2,0,0.4,0.1,0.5,0.3l3.3,6.2
						c0.1,0.2,0.2,0.2,0.2,0v-6.1c0-0.2,0.2-0.4,0.4-0.4h0.7c0.2,0,0.4,0.2,0.4,0.4v8.5c0,0.2-0.2,0.4-0.4,0.4h-1
						c-0.2,0-0.4-0.1-0.5-0.3l-3.3-6.2c-0.1-0.2-0.2-0.2-0.2,0v6.2c0,0.2-0.2,0.4-0.4,0.4h-0.7c-0.2,0-0.4-0.2-0.4-0.4V12.2z"/>
				</g>
				<g id="XMLID_955_">
					<path id="XMLID_956_" fill="#B08638" d="M73.1,20.2c0-0.2,0.2-0.4,0.4-0.4h1.4c0.2,0,0.5-0.1,0.6-0.3l0.1-0.1
						c0.1-0.1,0.3-0.4,0.3-0.6v-6.6c0-0.2,0.2-0.4,0.4-0.4h0.9c0.2,0,0.4,0.2,0.4,0.4v7.2c0,0.2-0.1,0.5-0.3,0.6l-0.8,0.8
						c-0.1,0.1-0.4,0.3-0.6,0.3h-2.3c-0.2,0-0.4-0.2-0.4-0.4V20.2z"/>
				</g>
				<g id="XMLID_951_">
					<path id="XMLID_952_" fill="#B08638" d="M81.3,20c-0.1-0.1-0.3-0.4-0.3-0.6v-5.8c0-0.2,0.1-0.5,0.3-0.6l0.8-0.8
						c0.1-0.1,0.4-0.3,0.6-0.3h3.5c0.2,0,0.5,0.1,0.6,0.3l0.8,0.8c0.1,0.1,0.3,0.4,0.3,0.6v5.8c0,0.2-0.1,0.5-0.3,0.6l-0.8,0.8
						c-0.1,0.1-0.4,0.3-0.6,0.3h-3.5c-0.2,0-0.5-0.1-0.6-0.3L81.3,20z M85.4,19.9c0.2,0,0.5-0.1,0.6-0.3l0.1-0.1
						c0.1-0.1,0.3-0.4,0.3-0.6v-4.8c0-0.2-0.1-0.5-0.3-0.6L86,13.3c-0.1-0.1-0.4-0.3-0.6-0.3h-1.7c-0.2,0-0.5,0.1-0.6,0.3l-0.1,0.1
						c-0.1,0.1-0.3,0.4-0.3,0.6v4.8c0,0.2,0.1,0.5,0.3,0.6l0.1,0.1c0.1,0.1,0.4,0.3,0.6,0.3H85.4z"/>
				</g>
				<g id="XMLID_948_">
					<path id="XMLID_949_" fill="#B08638" d="M91.6,20.1c-0.1-0.1-0.3-0.4-0.3-0.6v-0.7c0-0.2,0.2-0.4,0.4-0.4h0.9
						c0.2,0,0.4,0.2,0.4,0.4V19c0,0.2,0.1,0.5,0.2,0.6c0.1,0.1,0.4,0.2,0.6,0.2h1.8c0.2,0,0.5-0.1,0.6-0.3c0.1-0.1,0.3-0.4,0.3-0.6
						v-1.2c0-0.2-0.1-0.4-0.2-0.6c-0.1-0.1-0.4-0.2-0.6-0.2h-2.9c-0.2,0-0.5-0.1-0.6-0.3l-0.5-0.6c-0.1-0.1-0.3-0.4-0.3-0.6v-2.2
						c0-0.2,0.1-0.5,0.3-0.6l0.7-0.7c0.1-0.1,0.4-0.3,0.6-0.3h3.4c0.2,0,0.5,0.1,0.6,0.3l0.7,0.7c0.1,0.1,0.3,0.4,0.3,0.6v0.7
						c0,0.2-0.2,0.4-0.4,0.4h-0.9c-0.2,0-0.4-0.2-0.4-0.4v-0.2c0-0.2-0.1-0.5-0.2-0.6s-0.4-0.2-0.6-0.2h-1.7c-0.2,0-0.5,0.1-0.6,0.3
						c-0.1,0.1-0.3,0.4-0.3,0.6V15c0,0.2,0.1,0.4,0.2,0.6c0.1,0.1,0.3,0.2,0.5,0.2h2.9c0.2,0,0.5,0.1,0.6,0.3l0.5,0.5
						c0.1,0.1,0.3,0.4,0.3,0.6v2.3c0,0.2-0.1,0.5-0.3,0.6L97,20.8c-0.1,0.1-0.4,0.3-0.6,0.3h-3.5c-0.2,0-0.5-0.1-0.6-0.3L91.6,20.1z
						"/>
				</g>
				<g id="XMLID_945_">
					<path id="XMLID_946_" fill="#B08638" d="M101.5,12.2c0-0.2,0.2-0.4,0.4-0.4h4.9c0.2,0,0.4,0.2,0.4,0.4v0.5
						c0,0.2-0.2,0.4-0.4,0.4h-3.4c-0.2,0-0.4,0.2-0.4,0.4v2c0,0.2,0.2,0.4,0.4,0.4h3.1c0.2,0,0.4,0.2,0.4,0.4v0.5
						c0,0.2-0.2,0.4-0.4,0.4h-3.1c-0.2,0-0.4,0.2-0.4,0.4v2.1c0,0.2,0.2,0.4,0.4,0.4h3.4c0.2,0,0.4,0.2,0.4,0.4v0.5
						c0,0.2-0.2,0.4-0.4,0.4h-5c-0.2,0-0.4-0.2-0.4-0.4V12.2z"/>
				</g>
				<g id="XMLID_941_">
					<path id="XMLID_942_" fill="#B08638" d="M110.7,12.2c0-0.2,0.2-0.4,0.4-0.4h4.7c0.2,0,0.5,0.1,0.6,0.3l0.8,0.8
						c0.1,0.1,0.3,0.4,0.3,0.6V16c0,0.2-0.1,0.5-0.3,0.6l-0.8,0.8c-0.1,0.1-0.4,0.3-0.6,0.3h-3.1c-0.2,0-0.4,0.2-0.4,0.4v2.7
						c0,0.2-0.2,0.4-0.4,0.4H111c-0.2,0-0.4-0.2-0.4-0.4V12.2z M114.8,16.5c0.2,0,0.5-0.1,0.6-0.3l0,0c0.1-0.1,0.3-0.4,0.3-0.6v-1.6
						c0-0.2-0.1-0.5-0.3-0.6l0,0c-0.1-0.1-0.4-0.3-0.6-0.3h-2.2c-0.2,0-0.4,0.2-0.4,0.4v2.7c0,0.2,0.2,0.4,0.4,0.4H114.8z"/>
				</g>
				<g id="XMLID_938_">
					<path id="XMLID_939_" fill="#B08638" d="M120.6,12.2c0-0.2,0.2-0.4,0.4-0.4h0.9c0.2,0,0.4,0.2,0.4,0.4v3.2
						c0,0.2,0.2,0.4,0.4,0.4h2.8c0.2,0,0.4-0.2,0.4-0.4v-3.2c0-0.2,0.2-0.4,0.4-0.4h0.9c0.2,0,0.4,0.2,0.4,0.4v8.5
						c0,0.2-0.2,0.4-0.4,0.4H126c-0.2,0-0.4-0.2-0.4-0.4v-3.1c0-0.2-0.2-0.4-0.4-0.4h-2.8c-0.2,0-0.4,0.2-0.4,0.4v3.1
						c0,0.2-0.2,0.4-0.4,0.4H121c-0.2,0-0.4-0.2-0.4-0.4V12.2z"/>
				</g>
				<g id="XMLID_935_">
					<path id="XMLID_936_" fill="#B08638" d="M136.2,12.2c0-0.2,0.2-0.4,0.4-0.4h0.9c0.2,0,0.4,0.2,0.4,0.4v3.2
						c0,0.2,0.2,0.4,0.4,0.4h2.8c0.2,0,0.4-0.2,0.4-0.4v-3.2c0-0.2,0.2-0.4,0.4-0.4h0.9c0.2,0,0.4,0.2,0.4,0.4v8.5
						c0,0.2-0.2,0.4-0.4,0.4h-0.9c-0.2,0-0.4-0.2-0.4-0.4v-3.1c0-0.2-0.2-0.4-0.4-0.4h-2.8c-0.2,0-0.4,0.2-0.4,0.4v3.1
						c0,0.2-0.2,0.4-0.4,0.4h-0.9c-0.2,0-0.4-0.2-0.4-0.4V12.2z"/>
				</g>
				<g id="XMLID_931_">
					<path id="XMLID_932_" fill="#B08638" d="M148.4,12.2c0.1-0.2,0.3-0.3,0.5-0.3h1.5c0.2,0,0.4,0.2,0.5,0.3l2.5,8.5
						c0.1,0.2-0.1,0.3-0.3,0.3h-0.9c-0.2,0-0.4-0.2-0.5-0.3l-0.5-1.7c-0.1-0.2-0.3-0.3-0.5-0.3h-2.5c-0.2,0-0.4,0.2-0.5,0.3
						l-0.4,1.7c-0.1,0.2-0.3,0.3-0.5,0.3h-0.8c-0.2,0-0.3-0.2-0.3-0.3L148.4,12.2z M148.4,17.1c-0.1,0.2,0.1,0.3,0.3,0.3h1.8
						c0.2,0,0.3-0.2,0.3-0.3l-1.1-4c-0.1-0.2-0.1-0.2-0.2,0L148.4,17.1z"/>
				</g>
				<g id="XMLID_928_">
					<path id="XMLID_929_" fill="#B08638" d="M156.4,20.1c-0.1-0.1-0.3-0.4-0.3-0.6v-0.7c0-0.2,0.2-0.4,0.4-0.4h0.9
						c0.2,0,0.4,0.2,0.4,0.4V19c0,0.2,0.1,0.5,0.2,0.6c0.1,0.1,0.4,0.2,0.6,0.2h1.8c0.2,0,0.5-0.1,0.6-0.3c0.1-0.1,0.3-0.4,0.3-0.6
						v-1.2c0-0.2-0.1-0.4-0.2-0.6c-0.1-0.1-0.4-0.2-0.6-0.2h-2.9c-0.2,0-0.5-0.1-0.6-0.3l-0.5-0.6c-0.1-0.1-0.3-0.4-0.3-0.6v-2.2
						c0-0.2,0.1-0.5,0.3-0.6l0.7-0.7c0.1-0.1,0.4-0.3,0.6-0.3h3.4c0.2,0,0.5,0.1,0.6,0.3l0.7,0.7c0.1,0.1,0.3,0.4,0.3,0.6v0.7
						c0,0.2-0.2,0.4-0.4,0.4h-0.9c-0.2,0-0.4-0.2-0.4-0.4v-0.2c0-0.2-0.1-0.5-0.2-0.6s-0.4-0.2-0.6-0.2h-1.7c-0.2,0-0.5,0.1-0.6,0.3
						c-0.1,0.1-0.3,0.4-0.3,0.6V15c0,0.2,0.1,0.4,0.2,0.6c0.1,0.1,0.3,0.2,0.5,0.2h2.9c0.2,0,0.5,0.1,0.6,0.3l0.5,0.5
						c0.1,0.1,0.3,0.4,0.3,0.6v2.3c0,0.2-0.1,0.5-0.3,0.6l-0.7,0.7c-0.1,0.1-0.4,0.3-0.6,0.3h-3.5c-0.2,0-0.5-0.1-0.6-0.3
						L156.4,20.1z"/>
				</g>
				<g id="XMLID_925_">
					<path id="XMLID_926_" fill="#B08638" d="M166.3,20.1c-0.1-0.1-0.3-0.4-0.3-0.6v-0.7c0-0.2,0.2-0.4,0.4-0.4h0.9
						c0.2,0,0.4,0.2,0.4,0.4V19c0,0.2,0.1,0.5,0.2,0.6c0.1,0.1,0.4,0.2,0.6,0.2h1.8c0.2,0,0.5-0.1,0.6-0.3c0.1-0.1,0.3-0.4,0.3-0.6
						v-1.2c0-0.2-0.1-0.4-0.2-0.6c-0.1-0.1-0.4-0.2-0.6-0.2h-2.9c-0.2,0-0.5-0.1-0.6-0.3l-0.5-0.6c-0.1-0.1-0.3-0.4-0.3-0.6v-2.2
						c0-0.2,0.1-0.5,0.3-0.6l0.7-0.7c0.1-0.1,0.4-0.3,0.6-0.3h3.4c0.2,0,0.5,0.1,0.6,0.3l0.7,0.7c0.1,0.1,0.3,0.4,0.3,0.6v0.7
						c0,0.2-0.2,0.4-0.4,0.4h-0.9c-0.2,0-0.4-0.2-0.4-0.4v-0.2c0-0.2-0.1-0.5-0.2-0.6s-0.4-0.2-0.6-0.2h-1.7c-0.2,0-0.5,0.1-0.6,0.3
						c-0.1,0.1-0.3,0.4-0.3,0.6V15c0,0.2,0.1,0.4,0.2,0.6c0.1,0.1,0.3,0.2,0.5,0.2h2.9c0.2,0,0.5,0.1,0.6,0.3l0.5,0.5
						c0.1,0.1,0.3,0.4,0.3,0.6v2.3c0,0.2-0.1,0.5-0.3,0.6l-0.7,0.7c-0.1,0.1-0.4,0.3-0.6,0.3h-3.5c-0.2,0-0.5-0.1-0.6-0.3
						L166.3,20.1z"/>
				</g>
			</g>
		</g>
	</g>
</g>
</svg>
